<svg xmlns="http://www.w3.org/2000/svg" xmlns:xlink="http://www.w3.org/1999/xlink" viewBox="0 0 76 81" fill="#fff" fill-rule="evenodd" stroke="#000" stroke-linecap="round" stroke-linejoin="round"><use xlink:href="#A" x=".5" y=".5"/><symbol id="A" overflow="visible"><g fill="#0078d7" stroke="none"><path d="M24.457 40.734c.181.367.544.551.906.551.362.184.725.184 1.087.184s.725 0 .906-.184c.362-.184.543-.367.906-.734l.543-1.101c.181-.367.181-.918.181-1.651 0-.551 0-.917-.181-1.468s-.181-.917-.543-1.284c-.181-.367-.543-.55-.725-.918-.362-.183-.725-.367-1.087-.367-.544 0-.906.184-1.268.367s-.544.55-.906.734l-.544 1.101c-.181.367-.181.917-.181 1.468 0 .734 0 1.284.181 1.651l.725 1.651zm10.507 14.312c.543 0 1.268 0 1.812.183 2.899-5.872 8.696-9.725 15.399-10.092V10.826C52.174 5.321 40.399 0 26.087 0 11.594 0 0 4.954 0 10.459V60c0 4.954 9.602 9.725 22.101 10.459-.181-.734-.181-1.468-.181-2.202 0-7.156 5.797-13.211 13.044-13.211zm9.42-10.092h-9.058V30.826h4.167v10.826h4.891v3.303zM26.087 3.853c10.326 0 18.66 2.569 18.66 5.688s-8.333 5.688-18.659 5.688-18.66-2.568-18.66-5.688 8.333-5.688 18.659-5.688zm-7.79 37.798c0 .367-.181.734-.362 1.101s-.362.734-.725.917c-.362.367-.725.55-1.087.734s-.906.367-1.631.551c-.543.183-1.268.183-2.174.183H11.05c-.362 0-.725 0-1.087-.183-.362 0-.725-.184-.906-.184-.362 0-.543-.184-.725-.367V40.55c.181.184.544.367.906.551s.543.367.906.55.725.184 1.087.367.725.183 1.087.183.543 0 .725-.183c.181 0 .362-.184.362-.184.181 0 .181-.184.181-.367V41.1c0-.184 0-.367-.181-.551s-.181-.367-.362-.367c-.181-.184-.362-.184-.725-.367s-.544-.183-.906-.367c-.543-.184-1.087-.551-1.63-.917-.362-.367-.725-.55-1.087-.917s-.544-.734-.544-1.101c-.181-.367-.181-.917-.181-1.285 0-.734.181-1.284.362-1.835.362-.55.725-1.101 1.087-1.468.543-.367 1.087-.734 1.812-.917s1.449-.367 2.355-.367h1.268c.362 0 .725 0 1.087.184.363 0 .544.183.906.183.181 0 .544.183.725.183v3.67c-.181-.183-.363-.183-.725-.367-.181-.183-.543-.183-.906-.367s-.543-.184-.906-.184h-1.087c-.544 0-.906 0-1.087.184-.362.184-.362.367-.362.734 0 .184 0 .367.181.367 0 .184.181.184.362.367s.362.183.543.367.543.184.906.367c.543.184 1.087.551 1.631.734.543.367.906.55 1.268.918s.543.734.906 1.101c.181.367.362.917.362 1.651-.362.184-.362.551-.362.917zm1.449-.734a7.69 7.69 0 0 1-.544-2.936c0-1.101.181-2.202.544-3.119s.906-1.651 1.449-2.385 1.449-1.101 2.174-1.468c.906-.367 1.812-.551 2.899-.551s1.993.183 2.717.551a6.51 6.51 0 0 1 2.174 1.468c.543.55 1.087 1.468 1.449 2.202.362.917.543 1.835.543 3.119 0 .734 0 1.651-.362 2.202-.181.734-.544 1.285-.906 1.835s-.724 1.101-1.268 1.468-.906.734-1.63 1.101l4.71 4.037H28.26l-3.08-3.303c-.905 0-1.812-.367-2.536-.55-.725-.367-1.449-.917-1.993-1.468 0-.551-.544-1.285-.906-2.202z"/><path d="M75 73.211c0-3.486-2.717-6.422-6.159-6.789.181-1.101.362-2.018.362-3.119 0-8.991-7.246-16.33-16.123-16.33-6.703 0-12.681 4.037-15.036 10.275-.906-.184-1.812-.367-2.899-.367-6.341 0-11.413 5.138-11.413 11.56A11.52 11.52 0 0 0 34.964 80h34.058 1.268v-.183c2.717-.734 4.71-3.486 4.71-6.606zm-6.159 4.954H35.145c-5.254 0-9.602-4.404-9.602-9.725s4.348-9.725 9.602-9.725c1.087 0 2.174.183 3.08.55l.906.367.362-.917c1.993-5.872 7.428-9.908 13.587-9.908 7.971 0 14.312 6.605 14.312 14.495 0 1.284-.181 2.569-.543 3.853l-.362 1.468 1.268-.184h.544c2.717 0 4.891 2.202 4.891 4.954 0 2.385-1.812 4.587-4.348 4.771z"/></g></symbol></svg>